<svg xmlns="http://www.w3.org/2000/svg" xmlns:xlink="http://www.w3.org/1999/xlink" id="Capa_1" x="0" y="0" version="1.1" viewBox="0 0 512 512" xml:space="preserve" style="enable-background:new 0 0 512 512"><path style="fill:#e8dbc4" d="M512,256c0,8.296-0.397,16.509-1.17,24.607c-4.012,42.068-18.202,81.178-40.103,114.813	c-3.939,6.081-8.14,11.964-12.581,17.659c-4.921,6.332-10.146,12.434-15.632,18.265c-14.378,15.297-30.626,28.818-48.368,40.218	c-4.995,3.208-10.115,6.249-15.35,9.112c-4.932,2.706-9.968,5.245-15.088,7.628c-3.709,1.724-7.471,3.365-11.274,4.911	c-4.012,1.641-8.077,3.166-12.194,4.598c-6.656,2.33-13.448,4.378-20.344,6.154c-0.679,0.167-1.348,0.345-2.027,0.502	c-4.284,1.076-8.62,2.027-12.988,2.873c-6.855,1.327-13.793,2.372-20.835,3.135c-1.348,0.146-2.696,0.282-4.054,0.408	C272.091,511.624,264.087,512,256,512c-8.098,0-16.102-0.376-24.001-1.118c-1.358-0.115-2.727-0.261-4.086-0.408	c-7.032-0.763-13.96-1.818-20.804-3.135c-4.368-0.846-8.694-1.797-12.978-2.873c-0.679-0.157-1.348-0.334-2.027-0.502	c-6.802-1.755-13.5-3.772-20.062-6.06c-4.211-1.452-8.37-3.02-12.476-4.692c-3.845-1.567-7.649-3.218-11.4-4.974	c-5.078-2.361-10.073-4.88-14.963-7.565c-5.235-2.863-10.355-5.904-15.36-9.122c-17.742-11.389-33.98-24.91-48.358-40.197	c-10.428-11.086-19.874-23.103-28.212-35.913c-5.308-8.161-10.156-16.635-14.524-25.401c-5.998-12.016-11.065-24.555-15.13-37.554	v-0.01c-1.128-3.615-2.184-7.272-3.156-10.951c0-0.01,0-0.01,0-0.01c-2.664-10.094-4.733-20.417-6.154-30.96	C0.784,279.249,0,267.724,0,256c0-46.759,12.539-90.603,34.44-128.324c2.184-3.762,4.462-7.471,6.834-11.107	c8.328-12.81,17.784-24.827,28.212-35.913c1.902-2.027,3.835-4.012,5.81-5.966C121.584,28.526,185.469,0,256,0	c73.529,0,139.828,31.002,186.514,80.656c10.428,11.086,19.884,23.103,28.212,35.913C496.839,156.682,512,204.57,512,256z"/><g><path style="fill:#f9eed7" d="M510.83,280.607c-4.012,42.068-18.202,81.178-40.103,114.813 c-3.939,6.081-8.14,11.964-12.581,17.659H387.73c-3.657,0-6.969-1.484-9.373-3.877c-2.393-2.393-3.877-5.705-3.877-9.362 c0-7.325,5.935-13.249,13.249-13.249h40.27c3.657,0,6.969-1.484,9.373-3.877c2.393-2.403,3.877-5.716,3.877-9.373 c0-7.314-5.935-13.249-13.249-13.249h-11.243c-3.657,0-6.969-1.484-9.373-3.877c-2.393-2.403-3.877-5.716-3.877-9.373 c0-7.314,5.935-13.249,13.249-13.249h37.209c3.657,0,6.969-1.484,9.362-3.877c2.403-2.393,3.887-5.705,3.887-9.362 c0-7.325-5.935-13.249-13.249-13.249h-81.69c-3.657,0-6.969-1.484-9.362-3.887c-2.403-2.393-3.887-5.705-3.887-9.362 c0-7.314,5.935-13.249,13.249-13.249L510.83,280.607L510.83,280.607z"/><path style="fill:#f9eed7" d="M145.293,330.303c0,7.314-5.925,13.249-13.249,13.249h-3.678c-3.657,0-6.969,1.484-9.373,3.877 c-2.393,2.393-3.877,5.705-3.877,9.362c0,7.325-5.925,13.249-13.249,13.249H26.749c-5.998-12.016-11.065-24.555-15.13-37.554v-0.01 c0.125-0.711,0.188-1.432,0.188-2.173c0-3.365-1.264-6.447-3.344-8.777c0-0.01,0-0.01,0-0.01 c-2.664-10.094-4.733-20.417-6.154-30.96h71.774c7.314,0,13.249,5.935,13.249,13.249c0,7.314,5.935,13.249,13.249,13.249h31.462 c3.668,0,6.969,1.484,9.373,3.887C143.809,323.333,145.293,326.646,145.293,330.303z"/><path style="fill:#f9eed7" d="M214.497,140.925c0,7.314-5.925,13.249-13.239,13.249H75.4c-3.657,0-6.969-1.484-9.362-3.887 c-2.403-2.393-3.887-5.705-3.887-9.362c0-7.314-5.925-13.249-13.239-13.249H34.44c2.184-3.762,4.462-7.471,6.834-11.107 c8.328-12.81,17.784-24.827,28.212-35.913c1.902-2.027,3.835-4.012,5.81-5.966h105.347c3.657,0,6.98,1.484,9.373,3.877 c2.393,2.403,3.877,5.716,3.877,9.373c0,7.314-5.925,13.249-13.249,13.249h-42.684c-7.314,0-13.249,5.925-13.249,13.239 c0,7.325,5.935,13.249,13.249,13.249h63.3c3.657,0,6.969,1.484,9.362,3.887C213.013,133.956,214.497,137.268,214.497,140.925z"/><path style="fill:#f9eed7" d="M440.329,136.82v-0.001c0-7.316-5.931-13.247-13.247-13.247H301.229 c-7.316,0-13.247,5.931-13.247,13.247v0.001c0,7.316,5.931,13.247,13.247,13.247h20.975c7.316,0,13.247,5.931,13.247,13.247v0.001 c0,7.316,5.931,13.247,13.247,13.247h104.877c7.316,0,13.247-5.931,13.247-13.247v-0.001c0-7.316-5.931-13.247-13.247-13.247l0,0 C446.26,150.067,440.329,144.136,440.329,136.82z"/></g><g><rect style="fill:#494b5b" width="92.657" height="16.812" x="267.829" y="167.161" transform="matrix(-0.9934 -0.1143 0.1143 -0.9934 606.189 385.892)"/><rect style="fill:#494b5b" width="16.812" height="97.518" x="305.942" y="163.23" transform="matrix(-0.3386 -0.9409 0.9409 -0.3386 221.3229 579.5493)"/><rect style="fill:#494b5b" width="16.812" height="92.657" x="189.413" y="129.226" transform="matrix(-0.1143 -0.9934 0.9934 -0.1143 46.0266 392.1438)"/><rect style="fill:#494b5b" width="97.518" height="16.812" x="148.912" y="203.586" transform="matrix(-0.9409 -0.3386 0.3386 -0.9409 311.8825 478.3934)"/></g><path style="fill:#5c5e70" d="M363.708,345.015v143.287c-3.709,1.724-7.471,3.365-11.274,4.911	c-4.012,1.641-8.077,3.166-12.194,4.598c-6.656,2.33-13.448,4.378-20.344,6.154c-0.679,0.167-1.348,0.345-2.027,0.502	c-4.284,1.076-8.62,2.027-12.988,2.873c-6.855,1.327-13.793,2.372-20.835,3.135c-1.348,0.146-2.696,0.282-4.054,0.408	C272.091,511.624,264.087,512,256,512c-8.098,0-16.102-0.376-24.001-1.118c-1.358-0.115-2.727-0.261-4.086-0.408	c-7.032-0.763-13.96-1.818-20.804-3.135c-4.368-0.846-8.694-1.797-12.978-2.873c-0.679-0.157-1.348-0.334-2.027-0.502	c-6.802-1.755-13.5-3.772-20.062-6.06c-4.211-1.452-8.37-3.02-12.476-4.692c-3.845-1.567-7.649-3.218-11.4-4.974V345.015H363.708z"/><path style="fill:#ef4152" d="M363.708,402.108c-1.787,18.348-5.569,35.453-11.316,58.18c-2.361,9.352-5.204,18.578-8.526,27.627	l-3.626,9.895c-6.656,2.33-13.448,4.378-20.344,6.154c-0.679,0.167-1.348,0.345-2.027,0.502c-4.284,1.076-8.62,2.027-12.988,2.873	c-6.855,1.327-13.793,2.372-20.835,3.135c-1.348,0.146-2.696,0.282-4.054,0.408C272.091,511.624,264.087,512,256,512	c-8.098,0-16.102-0.376-24.001-1.118c-1.358-0.115-2.727-0.261-4.086-0.408c-7.032-0.763-13.96-1.818-20.804-3.135	c-4.368-0.846-8.694-1.797-12.978-2.873c-0.679-0.157-1.348-0.334-2.027-0.502c-6.802-1.755-13.5-3.772-20.062-6.06l-4.159-11.421	c-3.239-8.892-6.029-17.962-8.338-27.136c-5.851-23.103-9.644-40.166-11.379-58.817c-1.432-15.506-1.452-32.12,0-54.22l0.021-1.296	l0.146-7.199c0.47-22.089,18.516-39.779,40.605-39.779h134.008c22.11,0,40.145,17.69,40.605,39.779l0.157,7.199	C365.307,368.316,365.307,385.703,363.708,402.108z"/><path style="fill:#ff525d" d="M309.635,357.898l-6.081,54.324l-7.973,71.293c-1.254,11.254-7.116,20.982-15.59,27.366	C272.091,511.624,264.087,512,256,512c-8.098,0-16.102-0.376-24.001-1.118c-0.878-0.658-1.735-1.369-2.56-2.1	c-7.074-6.332-11.901-15.182-13.03-25.266l-7.973-71.272v-0.01l-0.658-5.925l-5.413-48.41c-0.481-4.284-0.658-8.589-0.554-12.884	c0.178-7.241,1.191-14.461,3.051-21.504l1.64-6.301c1.776-6.781,3.459-13.145,5.036-19.174c6.855-26.07,11.87-45.871,15.172-66.665	c0.888-5.569,1.641-11.201,2.278-17.053c1.149-10.449,1.902-21.556,2.267-34.137c0.167-5.36,0.251-10.992,0.272-16.948	c0.01-2.079,0.01-4.2,0-6.353l-0.073-68.19l-0.042-47.522l-0.021-16.468C231.34,11.076,242.375,0,256,0	c13.594,0,24.607,11.024,24.607,24.607v0.094l-0.073,16.468l-0.146,34.137v0.46l-0.355,81.115c-0.01,2.142-0.01,4.242,0,6.301	c0.021,5.966,0.115,11.598,0.282,16.959c0.397,12.643,1.191,23.803,2.382,34.294c0.658,5.841,1.442,11.463,2.351,17.021	c3.396,20.762,8.526,40.552,15.381,66.581c1.599,6.029,3.281,12.392,5.057,19.174l1.651,6.301	c1.839,7.043,2.863,14.263,3.051,21.504C310.293,349.309,310.115,353.614,309.635,357.898z"/><g><path style="fill:#ef4152" d="M231.657,88.689h-44.176c-7.14,0-12.929,5.789-12.929,12.929l0,0c0,7.14-5.789,12.929-12.929,12.929 h-38.23c-7.14,0-12.929-5.789-12.929-12.929V54.092c0-7.14,5.789-12.929,12.929-12.929h108.12L231.657,88.689z"/><path style="fill:#ef4152" d="M401.523,54.092v47.524c0,7.14-5.789,12.929-12.929,12.929h-38.216 c-7.14,0-12.928-5.789-12.928-12.929l0,0c0-7.14-5.789-12.929-12.928-12.929h-44.176l0.142-47.525h108.107 C395.735,41.164,401.523,46.952,401.523,54.092z"/></g><path style="fill:#5c5e70" d="M309.383,359.487l-5.831,52.735c-8.352,13.756-26.646,23.129-47.55,23.129	c-13.342,0-25.624-3.814-34.932-10.149c-5.287-3.581-9.606-7.989-12.631-12.967l-5.831-52.747c0-3.905,0.414-7.705,1.215-11.364	c2.883-13.304,10.705-24.745,21.474-32.321c8.688-6.115,19.276-9.709,30.705-9.709c11.429,0,22.017,3.594,30.705,9.709	c2.521,1.784,4.874,3.762,7.046,5.934c7.111,7.111,12.217,16.199,14.415,26.387C308.969,351.781,309.383,355.582,309.383,359.487z"/><path style="fill:#494b5b" d="M309.383,359.487l-5.831,52.735c-8.352,13.756-26.646,23.129-47.55,23.129	c-13.342,0-25.624-3.814-34.932-10.149c-5.287-3.581-9.606-7.989-12.631-12.967l-5.831-52.747c0-3.905,0.414-7.705,1.215-11.364	h104.345C308.969,351.781,309.383,355.582,309.383,359.487z"/><g><path style="fill:#ff6e7c" d="M385.893,95.588h-7.249c-2.52,0-4.563-2.043-4.563-4.563V58.781c0-2.52,2.043-4.563,4.563-4.563 h7.249c2.52,0,4.563,2.043,4.563,4.563v32.245C390.456,93.544,388.414,95.588,385.893,95.588z"/><path style="fill:#ff6e7c" d="M267.501,207.634h-2.314c-2.693,0-4.877-2.183-4.877-4.877V21.17c0-2.693,2.183-4.877,4.877-4.877 h2.314c2.693,0,4.877,2.183,4.877,4.877v181.588C272.377,205.451,270.194,207.634,267.501,207.634z"/><path style="fill:#ff6e7c" d="M343.478,401.559h-4.298c-5.001,0-9.056-4.054-9.056-9.056v-60.32c0-5.001,4.054-9.056,9.056-9.056 h4.298c5.001,0,9.056,4.054,9.056,9.056v60.321C352.533,397.505,348.479,401.559,343.478,401.559z"/></g><path style="fill:#5c5e70" d="M419.487,155.208v97.744c0,10.479-8.495,18.974-18.974,18.974h-36.066	c-10.479,0-18.974-8.495-18.974-18.974v-97.744c0-10.479,8.495-18.974,18.974-18.974h36.066	C410.992,136.234,419.487,144.729,419.487,155.208z"/><path style="fill:#494b5b" d="M396.01,240.036h-27.061c-12.966,0-23.477-10.511-23.477-23.477v31.89	c0,12.966,10.511,23.477,23.477,23.477h27.061c12.966,0,23.477-10.511,23.477-23.477v-31.89	C419.487,229.524,408.976,240.036,396.01,240.036z"/><path style="fill:#797b89" d="M396.896,171.434h-28.832c-3.463,0-6.269-2.807-6.269-6.269v-2.975c0-3.463,2.807-6.269,6.269-6.269	h28.832c3.463,0,6.269,2.807,6.269,6.269v2.975C403.165,168.628,400.358,171.434,396.896,171.434z"/><path style="fill:#5c5e70" d="M166.521,155.208v97.744c0,10.479-8.495,18.974-18.974,18.974h-36.066	c-10.479,0-18.974-8.495-18.974-18.974v-97.744c0-10.479,8.495-18.974,18.974-18.974h36.066	C158.026,136.234,166.521,144.729,166.521,155.208z"/><path style="fill:#494b5b" d="M143.044,240.036h-27.061c-12.966,0-23.477-10.511-23.477-23.477v31.89	c0,12.966,10.511,23.477,23.477,23.477h27.061c12.966,0,23.477-10.511,23.477-23.477v-31.89	C166.521,229.524,156.011,240.036,143.044,240.036z"/><path style="fill:#797b89" d="M143.931,171.434h-28.832c-3.463,0-6.269-2.807-6.269-6.269v-2.975c0-3.463,2.807-6.269,6.269-6.269	h28.832c3.463,0,6.269,2.807,6.269,6.269v2.975C150.2,168.628,147.393,171.434,143.931,171.434z"/><g><rect style="fill:#34abe0" width="13.791" height="54.299" x="228.854" y="355.882"/><rect style="fill:#34abe0" width="13.791" height="54.299" x="269.354" y="355.882"/></g><path style="fill:#494b5b" d="M286.706,315.802c-7.344,8.882-18.436,14.467-30.705,14.467c-10.149,0-19.483-3.814-26.555-10.149	c-1.487-1.331-2.883-2.767-4.15-4.319c8.688-6.115,19.276-9.709,30.705-9.709C267.43,306.092,278.018,309.686,286.706,315.802z"/><path style="fill:#ff525d" d="M255.999,422.246c-14.201,0-28.398-3.611-41.064-10.836c-3.721-2.123-5.018-6.86-2.895-10.582	c2.123-3.722,6.861-5.018,10.582-2.895c20.589,11.745,46.167,11.745,66.755,0c3.721-2.121,8.458-0.827,10.582,2.895	c2.122,3.721,0.827,8.458-2.895,10.582C284.399,418.633,270.197,422.246,255.999,422.246z"/><path style="fill:#ef4152" d="M255.999,325.377c8.699,0,17.394,2.212,25.153,6.637c2.279,1.3,3.073,4.202,1.773,6.482	c-1.301,2.28-4.203,3.073-6.482,1.773c-12.611-7.194-28.279-7.194-40.89,0c-2.279,1.299-5.181,0.506-6.482-1.773	c-1.3-2.279-0.506-5.181,1.773-6.482C238.602,327.59,247.302,325.377,255.999,325.377z"/><g><path style="fill:#fcf8f2" d="M470.727,116.569v278.852c-8.328,12.821-17.784,24.837-28.212,35.924V80.656 C452.942,91.742,462.399,103.758,470.727,116.569z"/><path style="fill:#fcf8f2" d="M69.486,80.656v350.699c-10.428-11.086-19.874-23.103-28.212-35.913V116.569 C49.601,103.758,59.058,91.742,69.486,80.656z"/></g></svg>