<svg xmlns="http://www.w3.org/2000/svg" xmlns:xlink="http://www.w3.org/1999/xlink" id="Capa_1" x="0" y="0" version="1.1" viewBox="0 0 512 512" xml:space="preserve" style="enable-background:new 0 0 512 512"><polygon style="fill:#6b778a" points="203.034 141.241 0 512 512 512 308.966 141.241"/><path style="fill:#ffdc13" d="M256,361.931c-4.873,0-8.828,3.955-8.828,8.828V512h17.655V370.759	C264.828,365.886,260.873,361.931,256,361.931z"/><rect style="fill:#b7e5ff" width="70.621" height="70.621" x="220.69" y="70.621"/><rect style="fill:#4db5ff" width="70.621" height="70.621" x="291.31" y="70.621"/><rect style="fill:#b7e5ff" width="70.621" height="70.621" x="361.931" y="70.621"/><rect style="fill:#4db5ff" width="70.621" height="70.621" x="361.931"/><rect style="fill:#ffa511" width="35.31" height="105.931" x="79.448" y="141.241"/><g><path style="fill:#235087" d="M476.69,256c-4.873,0-8.828-3.955-8.828-8.828V141.241c0-4.873,3.955-8.828,8.828-8.828 c4.873,0,8.828,3.955,8.828,8.828v105.931C485.517,252.045,481.562,256,476.69,256z"/><path style="fill:#235087" d="M35.31,256c-4.873,0-8.828-3.955-8.828-8.828V141.241c0-4.873,3.955-8.828,8.828-8.828 s8.828,3.955,8.828,8.828v105.931C44.138,252.045,40.183,256,35.31,256z"/></g><rect style="fill:#b7e5ff" width="70.621" height="70.621" x="79.448" y="70.621"/><rect style="fill:#f08015" width="35.31" height="105.931" x="397.241" y="141.241"/><g><path style="fill:#ffdc13" d="M256,185.379c4.873,0,8.828-3.955,8.828-8.828v-35.31h-17.655v35.31 C247.172,181.425,251.127,185.379,256,185.379z"/><path style="fill:#ffdc13" d="M256,317.793c-4.873,0-8.828-3.955-8.828-8.828V220.69c0-4.873,3.955-8.828,8.828-8.828 s8.828,3.955,8.828,8.828v88.276C264.828,313.838,260.873,317.793,256,317.793z"/></g><g><rect style="fill:#4db5ff" width="70.621" height="70.621" x="150.069" y="70.621"/><rect style="fill:#4db5ff" width="70.621" height="70.621" x="79.448"/></g><rect style="fill:#b7e5ff" width="70.621" height="70.621" x="150.069"/><rect style="fill:#4db5ff" width="70.621" height="70.621" x="220.69"/><rect style="fill:#b7e5ff" width="70.621" height="70.621" x="291.31"/><path style="fill:#96d0ea" d="M275.968,141.241h15.342v-7.706C286.234,136.174,281.141,138.778,275.968,141.241z"/><path style="fill:#3596d8" d="M291.31,133.535v7.706h70.621V88.029C339.827,105.322,316.186,120.55,291.31,133.535z"/><path style="fill:#96d0ea" d="M361.931,88.029v53.213h70.621V70.621h-49.646C376.099,76.632,369.108,82.441,361.931,88.029z"/><path style="fill:#3596d8" d="M382.905,70.621h49.646V19.615C417.342,37.87,400.746,54.925,382.905,70.621z"/><path style="fill:#f08015" d="M79.448,247.172h35.31v-63.276c-11.67,0.883-23.42,1.483-35.31,1.483V247.172z"/><g><path style="fill:#535b6d" d="M405.23,317.025c-31.1,60.328-80.163,109.515-140.403,140.774V512H512L405.23,317.025z"/><path style="fill:#535b6d" d="M114.759,494.345c-32.909,0.026-65.633-4.917-97.059-14.663L0,512h247.172v-45.709 C205.489,484.82,160.38,494.38,114.759,494.345z"/></g><path style="fill:#e5af17" d="M247.172,466.291V512h17.655v-54.201C259.037,460.8,253.149,463.634,247.172,466.291z"/><path style="fill:#ef2648" d="M467.862,105.931c14.716,8.474,29.422-8.474,44.138,0v35.31c-14.716-8.474-29.422,8.474-44.138,0	V105.931z"/><path style="fill:#b20d24" d="M467.862,132.414v8.828c14.716,7.812,29.422-7.812,44.138,0v-32.538	C502.51,114.759,486.294,139.034,467.862,132.414z"/><path style="fill:#ef2648" d="M44.138,105.931c-14.716,8.474-29.422-8.474-44.138,0v35.31c14.716-8.474,29.422,8.474,44.138,0	V105.931z"/><path style="fill:#b20d24" d="M0,132.414v8.828c14.716-7.812,29.422,7.812,44.138,0v-32.538	C34.648,131.24,18.432,125.793,0,132.414z"/></svg>