<svg xmlns="http://www.w3.org/2000/svg" width="933.333" height="933.333" preserveAspectRatio="xMidYMid meet" version="1.0" viewBox="0 0 700 700"><metadata>Created by potrace 1.11, written by Peter Selinger 2001-2013</metadata><g fill="#000" stroke="none"><path d="M363 5585 c-98 -22 -185 -93 -225 -181 -16 -38 -34 -135 -53 -289 -3 -27 -8 -57 -10 -65 -2 -8 -6 -46 -10 -85 -3 -38 -8 -88 -10 -110 -3 -22 -7 -67 -10 -100 -3 -33 -8 -78 -10 -100 -6 -46 -12 -132 -22 -325 -10 -175 -10 -883 0 -1025 4 -60 10 -141 13 -180 17 -240 76 -635 134 -898 64 -293 169 -630 218 -698 31 -43 100 -92 156 -109 21 -7 72 -12 113 -12 113 1 204 52 263 147 14 22 25 42 26 45 0 3 6 23 12 45 11 40 11 101 -2 165 l-7 36 133 28 c73 15 144 30 158 32 14 3 90 19 170 35 184 38 180 38 211 44 25 6 27 3 44 -57 54 -194 186 -350 359 -426 121 -54 94 -53 1516 -49 1219 3 1319 5 1374 21 125 37 227 103 310 201 26 29 46 56 46 59 0 4 10 23 23 44 13 20 36 76 52 125 15 48 29 87 30 87 5 0 291 -61 305 -65 8 -2 33 -7 55 -10 22 -4 105 -21 185 -39 130 -29 145 -34 141 -52 -2 -10 -4 -57 -4 -104 -2 -102 19 -153 92 -227 59 -60 127 -86 221 -85 87 1 134 15 194 58 68 50 97 104 154 282 106 330 189 708 227 1032 3 25 7 63 10 85 13 103 17 141 30 295 14 160 20 370 19 680 0 362 -9 594 -29 795 -5 50 -10 99 -20 210 -3 33 -8 76 -10 95 -3 19 -8 55 -10 80 -7 64 -14 114 -26 199 -6 41 -12 86 -14 101 -21 165 -192 292 -362 269 -153 -21 -272 -152 -276 -304 l-1 -64 -71 -16 c-38 -9 -176 -38 -305 -65 -129 -27 -254 -53 -276 -58 l-42 -9 -11 55 c-28 141 -137 286 -266 354 -137 72 -39 68 -1815 65 -1741 -2 -1599 2 -1720 -54 -138 -63 -262 -229 -286 -380 -4 -25 -11 -40 -18 -37 -6 2 -141 31 -301 64 -159 33 -299 62 -310 64 -11 3 -32 7 -46 10 -25 5 -27 10 -28 62 -2 204 -190 353 -388 309z m472 -875 c66 -28 156 -69 200 -89 44 -21 146 -66 227 -101 l147 -63 -4 -156 c-2 -86 -4 -202 -4 -258 l-1 -103 -222 0 c-206 0 -226 -2 -256 -20 -18 -11 -41 -34 -50 -50 -18 -32 -16 -32 -149 -32 -33 0 -66 3 -72 6 -10 7 -8 232 4 416 3 47 7 119 10 160 4 65 12 169 20 250 2 14 3 42 4 64 1 26 5 37 14 33 6 -3 66 -28 132 -57z m5484 -100 c28 -320 45 -756 30 -766 -5 -2 -37 -5 -71 -5 -131 -1 -132 -1 -150 31 -9 16 -32 39 -50 50 -30 18 -50 20 -255 20 -206 0 -223 1 -223 18 -1 9 -3 125 -5 257 l-5 240 38 17 c20 9 93 41 162 71 69 30 154 68 190 84 36 17 103 47 150 67 47 21 103 46 125 56 51 23 50 25 64 -140z m-5494 -1449 c23 -1 36 -10 53 -35 42 -62 62 -66 326 -66 181 0 238 -3 241 -12 2 -7 6 -44 9 -81 8 -84 33 -275 45 -340 4 -26 6 -49 2 -51 -3 -2 -130 -59 -281 -126 -151 -67 -303 -135 -338 -151 -35 -16 -65 -29 -67 -29 -9 0 -73 310 -99 480 -34 227 -50 401 -38 409 5 3 34 5 64 4 29 -1 67 -2 83 -2z m5468 0 l39 -1 -7 -62 c-9 -90 -15 -139 -20 -168 -2 -14 -7 -50 -10 -80 -15 -139 -96 -564 -109 -578 -2 -1 -32 11 -67 27 -35 16 -107 48 -159 71 -52 23 -120 53 -150 67 -30 13 -113 51 -185 83 -71 31 -129 62 -128 67 1 5 5 38 8 73 4 36 8 67 10 70 1 3 6 32 10 65 4 33 9 71 10 85 2 14 6 54 10 90 3 36 8 71 10 78 3 9 60 12 239 12 130 0 246 4 261 10 29 11 54 34 77 70 13 22 21 25 69 23 30 -1 71 -2 92 -2z" transform="translate(0.000000,700.000000) scale(0.100000,-0.100000)"/></g></svg>