<?xml version="1.0" encoding="iso-8859-1"?>
<!-- Generator: Adobe Illustrator 19.0.0, SVG Export Plug-In . SVG Version: 6.00 Build 0)  -->
<svg version="1.1" id="Layer_1" xmlns="http://www.w3.org/2000/svg" xmlns:xlink="http://www.w3.org/1999/xlink" x="0px" y="0px"
	 viewBox="0 0 512.001 512.001" style="enable-background:new 0 0 512.001 512.001;" xml:space="preserve">
<g>
	<polygon style="fill:#2D2D30;" points="386.458,195.892 473.464,157.603 467.175,128.062 376.143,147.44 	"/>
	<polygon style="fill:#2D2D30;" points="375.057,311.911 462.064,350.201 455.775,379.742 364.742,360.363 	"/>
	<rect x="395.26" y="231.235" style="fill:#2D2D30;" width="93.067" height="49.541"/>
</g>
<g>
	<path style="fill:#1D1D1F;" d="M425.287,334.016c-2.288,12.751-5.093,25.297-8.495,37.426l-52.049-11.08l10.314-48.452
		L425.287,334.016z"/>
	<path style="fill:#1D1D1F;" d="M386.458,195.892l-10.314-48.451l54.474-11.596c0.184,1.272,0.344,2.55,0.452,3.838
		c0.862,10.287,1.7,22.296,2.324,35.554L386.458,195.892z"/>
</g>
<path style="fill:#57565C;" d="M487.542,393.959c34.491-97.367,25.091-211.53,16.121-271.022
	c-1.941-12.868-13.951-21.724-26.813-19.786c-12.868,1.94-21.727,13.945-19.786,26.813c8.307,55.098,17.553,160.592-13.872,248.062
	c-4.4,12.247,1.961,25.741,14.208,30.142C460.031,409.112,480.826,412.916,487.542,393.959z"/>
<path style="fill:#3E3D42;" d="M465.859,378.019c31.426-87.471,22.181-192.964,13.872-248.062
	c-1.513-10.037,3.544-19.549,11.949-24.168c-4.368-2.397-9.526-3.438-14.83-2.638c-12.868,1.94-21.727,13.945-19.786,26.813
	c8.307,55.098,17.553,160.592-13.872,248.062c-4.4,12.247,1.961,25.741,14.208,30.142c1.707,0.613,11.055,2.422,19.247-1.552
	C466.68,401.128,461.89,389.067,465.859,378.019z"/>
<g>
	<polygon style="fill:#2D2D30;" points="125.544,195.892 38.537,157.603 44.826,128.062 135.858,147.44 	"/>
	<polygon style="fill:#2D2D30;" points="136.945,311.911 49.938,350.201 56.226,379.742 147.259,360.363 	"/>
	<rect x="29.211" y="231.235" style="fill:#2D2D30;" width="93.067" height="49.541"/>
</g>
<g>
	<path style="fill:#1D1D1F;" d="M86.714,334.016c2.288,12.751,5.093,25.297,8.495,37.426l52.049-11.08l-10.314-48.452
		L86.714,334.016z"/>
	<path style="fill:#1D1D1F;" d="M125.544,195.892l10.314-48.451l-54.474-11.596c-0.184,1.272-0.344,2.55-0.452,3.838
		c-0.862,10.287-1.7,22.296-2.324,35.554L125.544,195.892z"/>
</g>
<path style="fill:#57565C;" d="M24.459,393.959c-34.491-97.368-25.091-211.531-16.12-271.022
	c1.941-12.868,13.951-21.724,26.813-19.786c12.868,1.94,21.727,13.945,19.786,26.813C46.63,185.062,37.384,290.556,68.81,378.026
	c4.4,12.247-1.961,25.741-14.208,30.142C51.97,409.112,31.175,412.916,24.459,393.959z"/>
<path style="fill:#3E3D42;" d="M47.126,393.953c-34.491-97.367-25.091-211.53-16.121-271.022
	c1.139-7.556,5.755-13.726,11.972-17.142c-2.367-1.3-5-2.212-7.826-2.638c-12.861-1.938-24.872,6.918-26.813,19.786
	c-8.971,59.491-18.37,173.656,16.121,271.022c6.716,18.957,27.511,15.153,30.142,14.208c1.203-0.432,2.347-0.955,3.432-1.552
	C53.591,404.463,49.487,400.619,47.126,393.953z"/>
<path style="fill:#57565C;" d="M367.416,106.165h-222.83c-20.207,0-37.053,15.47-38.741,35.607
	c-4.441,52.964-8.381,154.622,16.312,232.578c5.907,18.648,23.101,31.398,42.663,31.43c46.737,0.075,135.626,0.075,182.364,0
	c19.562-0.031,36.756-12.78,42.663-31.43c24.692-77.957,20.752-179.614,16.312-232.578
	C404.468,121.636,387.623,106.165,367.416,106.165z"/>
<path style="fill:#3E3D42;" d="M189.251,116.494c0.3-3.579,1.003-7.033,2.043-10.33h-46.708c-20.207,0-37.053,15.47-38.741,35.607
	c-4.441,52.964-8.381,154.622,16.312,232.578c5.907,18.648,23.101,31.398,42.663,31.43c12.844,0.021,28.877,0.035,46.339,0.044
	c-0.742-1.715-1.412-3.475-1.985-5.285C179.015,305.332,183.827,181.178,189.251,116.494z"/>
<path style="fill:#2D2D30;" d="M115.101,288.133H72.674c-5.666,0-10.302-4.636-10.302-10.302v-43.66
	c0-5.666,4.636-10.302,10.302-10.302H115.1c5.666,0,10.302,4.636,10.302,10.302v43.66
	C125.403,283.497,120.767,288.133,115.101,288.133z"/>
<path style="fill:#1D1D1F;" d="M115.402,223.868h-43.03c-5.5,0-10,4.5-10,10V266c0-5.5,4.5-10,10-10h43.03c5.5,0,10,4.5,10,10
	v-32.132C125.401,228.369,120.902,223.868,115.402,223.868z"/>
<path style="fill:#2D2D30;" d="M439.328,288.137h-42.426c-5.666,0-10.302-4.636-10.302-10.302v-43.66
	c0-5.666,4.636-10.302,10.302-10.302h42.426c5.666,0,10.302,4.636,10.302,10.302v43.66
	C449.629,283.501,444.994,288.137,439.328,288.137z"/>
<path style="fill:#3E3D42;" d="M98.598,273.66c-4.142,0-7.5-3.358-7.5-7.5v-20.319c0-4.142,3.358-7.5,7.5-7.5
	c4.141,0,7.5,3.358,7.5,7.5v20.319C106.098,270.302,102.741,273.66,98.598,273.66z"/>
<path style="fill:#2D2D30;" d="M98.598,238.341c-4.142,0-7.5,3.358-7.5,7.5V256h15v-10.16
	C106.098,241.698,102.741,238.341,98.598,238.341z"/>
<path style="fill:#1D1D1F;" d="M396.6,223.872h43.03c5.5,0,10,4.5,10,10v32.132c0-5.5-4.5-10-10-10H396.6c-5.5,0-10,4.5-10,10
	v-32.132C386.599,228.373,391.1,223.872,396.6,223.872z"/>
<path style="fill:#3E3D42;" d="M413.403,273.665c-4.142,0-7.5-3.358-7.5-7.5v-20.32c0-4.142,3.358-7.5,7.5-7.5
	c4.142,0,7.5,3.358,7.5,7.5v20.32C420.903,270.307,417.545,273.665,413.403,273.665z"/>
<path style="fill:#2D2D30;" d="M413.403,238.344c4.142,0,7.5,3.358,7.5,7.5v10.16h-15v-10.16
	C405.903,241.703,409.261,238.344,413.403,238.344z"/>
<path style="fill:#3E3D42;" d="M344.36,138.781H167.641c-15.552,0-28.275,12.724-28.275,28.275v85.414
	c0,15.552,12.724,28.275,28.275,28.275H344.36c15.552,0,28.275-12.724,28.275-28.275v-85.414
	C372.635,151.505,359.911,138.781,344.36,138.781z"/>
<g>
	<path style="fill:#2D2D30;" d="M187.601,138.781h-19.96c-15.552,0-28.275,12.724-28.275,28.275v85.414
		c0,15.552,12.724,28.275,28.275,28.275h20.133C183.723,228.227,185.126,177.149,187.601,138.781z"/>
	<path style="fill:#2D2D30;" d="M334.935,165.878H177.066c-6.48,0-11.781,5.301-11.781,11.781v53.604
		c0,6.48,5.301,11.781,11.781,11.781h157.869c6.48,0,11.781-5.301,11.781-11.781v-53.604
		C346.716,171.179,341.415,165.878,334.935,165.878z"/>
</g>
<path style="fill:#1D1D1F;" d="M213.83,231.264v-53.604c0-6.48,5.301-11.781,11.781-11.781h-48.545
	c-6.48,0-11.781,5.301-11.781,11.781v53.604c0,6.48,5.301,11.781,11.781,11.781h48.545
	C219.131,243.045,213.83,237.744,213.83,231.264z"/>
<g>
	<path style="fill:#787680;" d="M263.657,228.908c-1.919,0-3.838-0.732-5.303-2.196c-2.929-2.929-2.929-7.678,0-10.607
		l30.542-30.543c2.929-2.929,7.678-2.929,10.607,0c2.929,2.929,2.929,7.678,0,10.607l-30.542,30.543
		C267.495,228.175,265.576,228.908,263.657,228.908z"/>
	<path style="fill:#787680;" d="M298.695,230.869c-1.919,0-3.838-0.732-5.303-2.196c-2.929-2.929-2.929-7.678,0-10.607l7.369-7.369
		c2.929-2.929,7.678-2.929,10.607,0c2.929,2.929,2.929,7.678,0,10.607l-7.369,7.369
		C302.534,230.137,300.615,230.869,298.695,230.869z"/>
</g>
<circle style="fill:#3D9AE2;" cx="199.495" cy="328.165" r="26.213"/>
<path style="fill:#1E81CE;" d="M211.158,309.446c2.727,0,5.356,0.417,7.828,1.19c-4.799-5.331-11.75-8.684-19.487-8.684
	c-14.477,0-26.213,11.736-26.213,26.213c0,11.75,7.732,21.695,18.386,25.024c-4.18-4.644-6.726-10.788-6.726-17.529
	C184.944,321.182,196.68,309.446,211.158,309.446z"/>
<circle style="fill:#FFE477;" cx="301.061" cy="329.339" r="15.021"/>
<path style="fill:#FFDA44;" d="M301.064,329.5c0-5.61,3.082-10.494,7.64-13.074c-2.241-1.328-4.846-2.105-7.64-2.105
	c-8.296,0-15.021,6.725-15.021,15.021s6.725,15.021,15.021,15.021c2.686,0,5.2-0.713,7.381-1.948
	C304.032,339.801,301.064,335.003,301.064,329.5z"/>
<circle style="fill:#FF5023;" cx="256.001" cy="357.03" r="15.021"/>
<path style="fill:#FF3501;" d="M252.976,360.848c0-7.659,5.737-13.967,13.146-14.891c-2.671-2.445-6.218-3.948-10.125-3.948
	c-8.296,0-15.021,6.725-15.021,15.021c0,8.296,6.725,15.021,15.021,15.021c0.637,0,1.26-0.053,1.875-0.13
	C254.871,369.174,252.976,365.237,252.976,360.848z"/>
<circle style="fill:#AAFFF5;" cx="331.101" cy="372.05" r="15.021"/>
<path style="fill:#44FFE8;" d="M331.106,372.05c0-5.557,3.026-10.397,7.511-12.995c-2.211-1.281-4.772-2.026-7.511-2.026
	c-8.296,0-15.021,6.725-15.021,15.021c0,8.296,6.725,15.021,15.021,15.021c2.739,0,5.299-0.745,7.51-2.026
	C334.132,382.447,331.106,377.606,331.106,372.05z"/>
<path style="fill:#FFDA44;" d="M143.312,344.49c-1.97,0-3.911-0.799-5.3-2.19c-1.4-1.4-2.199-3.331-2.199-5.3
	c0-1.98,0.799-3.911,2.199-5.311c1.39-1.39,3.32-2.19,5.3-2.19c1.97,0,3.91,0.799,5.3,2.19c1.4,1.4,2.2,3.331,2.2,5.311
	c0,1.97-0.8,3.9-2.2,5.3C147.222,343.689,145.282,344.49,143.312,344.49z"/>
<path style="fill:#1A6FB0;" d="M199.498,335.659c-1.97,0-3.911-0.799-5.3-2.19c-1.4-1.4-2.199-3.331-2.199-5.3
	c0-1.98,0.799-3.911,2.199-5.31c1.39-1.39,3.32-2.19,5.3-2.19c1.97,0,3.91,0.799,5.3,2.19c1.4,1.4,2.2,3.331,2.2,5.31
	c0,1.97-0.8,3.9-2.2,5.3C203.408,334.86,201.468,335.659,199.498,335.659z"/>
<path style="fill:#44FFE8;" d="M143.312,314.322c-1.97,0-3.911-0.799-5.3-2.19c-1.4-1.4-2.199-3.331-2.199-5.3
	c0-1.98,0.799-3.911,2.199-5.311c1.39-1.39,3.32-2.19,5.3-2.19c1.97,0,3.91,0.799,5.3,2.19c1.4,1.4,2.2,3.331,2.2,5.311
	c0,1.97-0.8,3.9-2.2,5.3C147.222,313.522,145.282,314.322,143.312,314.322z"/>
<path style="fill:#FFE477;" d="M368.689,344.49c-1.97,0-3.911-0.799-5.3-2.19c-1.4-1.4-2.199-3.331-2.199-5.3
	c0-1.98,0.799-3.911,2.199-5.311c1.39-1.39,3.32-2.19,5.3-2.19c1.97,0,3.91,0.799,5.3,2.19c1.4,1.4,2.2,3.331,2.2,5.311
	c0,1.97-0.8,3.9-2.2,5.3C372.599,343.689,370.659,344.49,368.689,344.49z"/>
<path style="fill:#AAFFF5;" d="M368.689,314.322c-1.97,0-3.911-0.799-5.3-2.19c-1.4-1.4-2.199-3.331-2.199-5.3
	c0-1.98,0.799-3.911,2.199-5.311c1.39-1.39,3.32-2.19,5.3-2.19c1.97,0,3.91,0.799,5.3,2.19c1.4,1.4,2.2,3.331,2.2,5.311
	c0,1.97-0.8,3.9-2.2,5.3C372.599,313.522,370.659,314.322,368.689,314.322z"/>
<g>
</g>
<g>
</g>
<g>
</g>
<g>
</g>
<g>
</g>
<g>
</g>
<g>
</g>
<g>
</g>
<g>
</g>
<g>
</g>
<g>
</g>
<g>
</g>
<g>
</g>
<g>
</g>
<g>
</g>
</svg>
